<svg width="1200" height="630" viewBox="0 0 1200 630" xmlns="http://www.w3.org/2000/svg">
  <defs>
    <linearGradient id="bg" x1="0%" y1="0%" x2="100%" y2="100%">
      <stop offset="0%" style="stop-color:#022C22"/>
      <stop offset="50%" style="stop-color:#064E3B"/>
      <stop offset="100%" style="stop-color:#011410"/>
    </linearGradient>
    <linearGradient id="gold" x1="0%" y1="0%" x2="100%" y2="0%">
      <stop offset="0%" style="stop-color:#FCD34D"/>
      <stop offset="100%" style="stop-color:#F59E0B"/>
    </linearGradient>
  </defs>

  <!-- Background -->
  <rect width="1200" height="630" fill="url(#bg)"/>

  <!-- Decorative circles -->
  <circle cx="1050" cy="80" r="220" fill="none" stroke="#059669" stroke-width="1" opacity="0.15"/>
  <circle cx="1050" cy="80" r="160" fill="none" stroke="#059669" stroke-width="1" opacity="0.12"/>
  <circle cx="150" cy="550" r="180" fill="none" stroke="#FCD34D" stroke-width="1" opacity="0.08"/>

  <!-- Arabic decorative text top -->
  <text x="600" y="90" text-anchor="middle" font-family="serif" font-size="36" fill="#FCD34D" opacity="0.35">﷽</text>

  <!-- App icon placeholder circle -->
  <circle cx="600" cy="230" r="72" fill="#059669" opacity="0.2"/>
  <circle cx="600" cy="230" r="60" fill="#059669" opacity="0.3"/>
  <!-- Crescent moon icon -->
  <path d="M600 175 C635 175 665 200 665 230 C665 260 635 285 600 285 C622 272 636 252 636 230 C636 208 622 188 600 175Z" fill="#FCD34D"/>
  <circle cx="645" cy="200" r="8" fill="#FCD34D" opacity="0.7"/>

  <!-- App name -->
  <text x="600" y="355" text-anchor="middle" font-family="-apple-system, BlinkMacSystemFont, 'Segoe UI', sans-serif" font-weight="700" font-size="68" fill="white" letter-spacing="-1">Al Nour</text>
  <text x="600" y="395" text-anchor="middle" font-family="serif" font-size="28" fill="#FCD34D" opacity="0.9">النور</text>

  <!-- Separator -->
  <rect x="480" y="415" width="240" height="2" rx="1" fill="url(#gold)" opacity="0.4"/>

  <!-- Tagline -->
  <text x="600" y="458" text-anchor="middle" font-family="-apple-system, BlinkMacSystemFont, 'Segoe UI', sans-serif" font-size="22" fill="white" opacity="0.75">Prayer Times · Quran · Qibla · Tasbih · Duas</text>

  <!-- Feature pills -->
  <rect x="188" y="490" width="130" height="36" rx="18" fill="#059669" opacity="0.25"/>
  <text x="253" y="513" text-anchor="middle" font-family="sans-serif" font-size="14" fill="#A7F3D0" font-weight="600">🕌 Prayer Times</text>

  <rect x="332" y="490" width="100" height="36" rx="18" fill="#059669" opacity="0.25"/>
  <text x="382" y="513" text-anchor="middle" font-family="sans-serif" font-size="14" fill="#A7F3D0" font-weight="600">📖 Quran</text>

  <rect x="446" y="490" width="100" height="36" rx="18" fill="#059669" opacity="0.25"/>
  <text x="496" y="513" text-anchor="middle" font-family="sans-serif" font-size="14" fill="#A7F3D0" font-weight="600">🧭 Qibla</text>

  <rect x="560" y="490" width="130" height="36" rx="18" fill="#059669" opacity="0.25"/>
  <text x="625" y="513" text-anchor="middle" font-family="sans-serif" font-size="14" fill="#A7F3D0" font-weight="600">🔔 Reminders</text>

  <rect x="704" y="490" width="120" height="36" rx="18" fill="#059669" opacity="0.25"/>
  <text x="764" y="513" text-anchor="middle" font-family="sans-serif" font-size="14" fill="#A7F3D0" font-weight="600">📵 Offline PWA</text>

  <rect x="838" y="490" width="140" height="36" rx="18" fill="#059669" opacity="0.25"/>
  <text x="908" y="513" text-anchor="middle" font-family="sans-serif" font-size="14" fill="#A7F3D0" font-weight="600">🌍 13 Languages</text>

  <!-- URL -->
  <text x="600" y="590" text-anchor="middle" font-family="monospace" font-size="16" fill="white" opacity="0.3">al-nour-islamic-app.vercel.app</text>

  <!-- Free badge -->
  <rect x="1080" y="20" width="96" height="32" rx="16" fill="#FCD34D"/>
  <text x="1128" y="41" text-anchor="middle" font-family="sans-serif" font-size="14" fill="#022C22" font-weight="700">FREE</text>
</svg>
